<?xml version="1.0" standalone="no"?>
<!DOCTYPE svg PUBLIC "-//W3C//DTD SVG 20010904//EN"
 "http://www.w3.org/TR/2001/REC-SVG-20010904/DTD/svg10.dtd">
<svg version="1.0" xmlns="http://www.w3.org/2000/svg"
 width="512.000000pt" height="512.000000pt" viewBox="0 0 512.000000 512.000000"
 preserveAspectRatio="xMidYMid meet">
<metadata>
Created by potrace 1.14, written by Peter Selinger 2001-2017
</metadata>
<g transform="translate(0.000000,512.000000) scale(0.100000,-0.100000)"
fill="#000000" stroke="none">
<path d="M2280 5084 c-58 -6 -118 -15 -135 -19 -29 -6 -55 -10 -112 -19 -16
-3 -62 -14 -103 -26 -41 -11 -88 -23 -105 -27 -16 -3 -34 -9 -40 -13 -5 -4
-23 -11 -40 -15 -38 -10 -34 -9 -70 -24 -16 -7 -34 -14 -40 -15 -5 -1 -27 -10
-47 -20 -20 -10 -42 -19 -50 -20 -20 -3 -122 -57 -129 -68 -3 -5 -8 -8 -11 -6
-7 5 -119 -54 -142 -74 -19 -17 -31 -22 -48 -19 -5 0 -8 -3 -8 -9 0 -5 -17
-19 -37 -30 -59 -32 -143 -97 -136 -104 3 -3 -1 -6 -10 -6 -9 0 -20 -7 -25
-16 -5 -9 -12 -15 -16 -14 -4 1 -30 -19 -58 -44 -28 -25 -55 -46 -60 -46 -5 0
-6 -4 -3 -10 3 -5 1 -10 -5 -10 -13 0 -150 -137 -150 -151 0 -6 -3 -8 -8 -6
-4 3 -20 -12 -36 -34 -17 -21 -33 -39 -38 -39 -4 0 -8 -4 -8 -9 0 -6 -16 -27
-35 -48 -19 -21 -35 -43 -35 -48 0 -6 -9 -16 -21 -23 -12 -7 -18 -16 -15 -19
3 -3 0 -11 -7 -18 -7 -7 -19 -23 -27 -35 -8 -12 -20 -28 -27 -35 -7 -7 -9 -15
-6 -19 4 -3 1 -6 -5 -6 -7 0 -12 -7 -12 -15 0 -8 -4 -15 -9 -15 -5 0 -13 -10
-17 -22 -3 -12 -13 -28 -20 -36 -8 -7 -14 -20 -14 -28 0 -8 -3 -14 -8 -14 -4
0 -16 -20 -27 -45 -11 -25 -23 -45 -28 -45 -4 0 -6 -3 -5 -7 1 -5 -11 -34 -25
-65 -15 -32 -26 -59 -25 -61 2 -2 -4 -14 -13 -27 -18 -29 -65 -152 -61 -162 1
-5 -2 -8 -6 -8 -5 0 -9 -6 -10 -12 -1 -19 -29 -118 -50 -178 -2 -8 -6 -22 -7
-30 -2 -8 -6 -26 -9 -40 -4 -14 -9 -38 -11 -55 -3 -16 -13 -67 -21 -112 -8
-46 -13 -87 -9 -92 3 -5 1 -12 -3 -15 -14 -9 -14 -103 0 -108 11 -3 1306 -3
1331 1 5 0 5 10 2 21 -4 11 -2 20 4 20 6 0 11 10 11 23 -1 25 5 55 13 77 3 8
13 36 21 62 19 58 76 181 89 189 5 3 7 9 5 12 -1 4 4 14 12 24 8 10 21 30 28
44 8 15 25 38 38 52 13 14 24 31 24 37 0 5 5 10 10 10 6 0 10 7 10 16 0 8 5
12 10 9 6 -3 10 -2 10 2 0 14 57 72 64 66 3 -4 6 1 6 10 0 9 7 17 17 17 9 0
13 3 10 6 -4 4 15 23 41 42 26 20 49 40 50 44 2 4 8 8 13 8 11 0 72 42 77 53
2 4 8 5 13 1 5 -3 9 0 9 5 0 6 6 11 14 11 8 0 21 6 28 13 7 6 18 13 24 14 5 1
39 15 74 32 35 16 68 27 72 25 5 -3 8 0 8 6 0 6 3 9 8 7 4 -3 18 0 32 6 14 6
33 11 43 12 9 2 19 4 22 5 11 5 103 20 163 26 18 2 37 6 42 9 6 3 10 1 10 -5
0 -6 5 -8 12 -4 13 9 97 9 105 0 3 -2 15 -1 28 4 12 5 26 5 31 0 8 -7 47 -13
152 -23 12 -1 22 -5 22 -9 0 -5 3 -7 8 -7 4 1 9 0 12 -1 9 -3 44 -10 63 -12 9
-1 17 -6 17 -10 0 -4 8 -8 18 -8 10 0 36 -8 58 -19 21 -10 54 -24 72 -32 17
-8 32 -17 32 -21 0 -5 6 -8 13 -8 7 0 29 -11 50 -25 20 -14 37 -22 37 -18 0 4
6 0 13 -8 20 -25 105 -89 116 -89 6 0 11 -6 11 -12 0 -7 14 -22 30 -33 16 -11
30 -23 30 -27 0 -3 15 -22 33 -40 45 -49 75 -86 104 -135 14 -24 29 -43 34
-43 5 0 8 -3 7 -7 -1 -5 16 -44 38 -88 34 -70 50 -113 95 -261 5 -17 9 -40 9
-52 0 -12 3 -23 8 -23 4 -1 308 -2 675 -3 l668 -1 -2 45 c-1 25 -7 51 -13 59
-9 12 -8 13 4 6 13 -7 13 -6 2 7 -7 8 -10 23 -6 32 3 9 2 16 -4 16 -5 0 -10
12 -9 28 0 28 -8 78 -18 122 -3 14 -8 34 -10 45 -5 29 -11 52 -29 120 -9 33
-19 71 -22 85 -3 13 -10 30 -16 37 -6 8 -8 16 -4 20 3 3 -1 17 -9 29 -8 13
-16 35 -17 49 -1 14 -5 25 -9 25 -4 0 -9 10 -13 23 -3 13 -18 50 -32 83 -15
32 -27 62 -26 67 1 4 -3 7 -9 7 -5 0 -8 4 -4 9 3 5 -2 16 -10 24 -8 9 -15 21
-15 27 0 7 -8 24 -18 38 -10 15 -29 48 -42 75 -13 26 -27 47 -32 47 -4 0 -7 3
-6 8 3 11 -43 82 -54 82 -5 0 -7 4 -4 9 3 5 -6 21 -19 35 -14 15 -25 31 -25
37 0 5 -5 9 -12 9 -6 0 -9 3 -5 6 5 5 -15 33 -50 70 -7 7 -13 16 -13 21 0 5
-9 15 -20 23 -11 8 -20 18 -20 21 0 4 -16 24 -35 43 -19 20 -35 41 -35 46 0 6
-7 10 -15 10 -8 0 -15 3 -15 8 0 13 -58 72 -71 72 -7 0 -10 3 -7 6 4 3 -12 22
-35 42 -23 20 -47 42 -53 48 -6 5 -30 26 -54 45 -23 18 -54 44 -68 56 -15 13
-33 23 -40 23 -7 0 -11 4 -8 8 3 5 -7 15 -22 23 -15 8 -35 22 -44 33 -10 10
-18 16 -18 12 0 -4 -25 11 -56 33 -31 22 -61 38 -65 35 -5 -3 -9 0 -9 5 0 6
-24 23 -52 37 -29 15 -56 32 -60 38 -4 6 -8 7 -8 3 0 -9 -61 22 -71 36 -3 5
-9 8 -13 8 -9 -1 -37 10 -86 33 -25 11 -48 20 -52 18 -5 -1 -8 3 -8 8 0 6 -9
10 -20 10 -11 0 -28 4 -38 10 -25 14 -202 70 -222 70 -9 0 -20 3 -24 7 -3 4
-14 8 -24 9 -9 1 -51 10 -92 19 -41 9 -86 18 -100 20 -14 1 -41 5 -60 9 -82
14 -136 18 -335 20 -126 2 -252 -2 -315 -10z"/>
<path d="M2517 3384 c-1 -1 -29 -5 -62 -9 -71 -8 -99 -13 -102 -15 -2 -2 -6
-3 -10 -5 -53 -14 -75 -22 -132 -50 -87 -42 -162 -91 -154 -99 3 -3 1 -6 -6
-6 -13 0 -100 -84 -148 -145 -37 -46 -118 -195 -106 -195 4 0 2 -4 -4 -8 -7
-4 -15 -26 -19 -47 -3 -22 -9 -44 -12 -50 -7 -12 -10 -24 -16 -83 -3 -23 -8
-47 -11 -52 -3 -6 -1 -10 6 -10 7 0 8 -4 2 -12 -9 -13 -9 -61 1 -148 5 -44 13
-85 16 -85 1 0 3 -9 5 -19 21 -113 126 -295 219 -381 67 -61 96 -85 96 -78 0
5 4 3 8 -2 16 -23 144 -95 169 -95 7 0 13 -4 13 -8 0 -5 6 -9 13 -10 16 -1 52
-10 52 -13 0 -1 9 -3 20 -5 11 -1 31 -6 45 -10 45 -14 345 -8 345 6 0 1 9 3
20 5 52 9 99 25 105 35 4 6 10 11 14 11 3 -1 8 0 11 0 29 8 56 21 95 46 19 13
43 29 54 36 10 6 25 18 32 25 8 7 14 11 14 8 0 -3 20 15 44 40 25 25 44 46 43
47 0 1 10 14 23 29 40 42 51 58 43 58 -4 0 0 5 10 11 9 5 17 14 17 20 0 5 11
27 24 48 14 21 22 42 19 45 -4 3 -1 6 5 6 7 0 11 3 10 8 -1 4 4 19 10 34 20
47 43 148 37 158 -3 6 -2 10 4 10 5 0 10 8 9 18 0 9 0 58 0 107 0 124 -2 155
-10 155 -4 0 -7 8 -7 18 0 24 -6 50 -14 58 -4 4 -7 15 -7 24 0 25 -65 163 -84
179 -9 7 -16 19 -16 25 0 20 -96 128 -165 186 -59 49 -197 128 -237 134 -7 1
-17 4 -23 8 -9 5 -50 16 -95 25 -59 11 -205 23 -213 17z"/>
<path d="M30 2329 c0 -22 4 -39 10 -39 6 0 6 -9 0 -24 -5 -13 -6 -27 -3 -30 3
-3 11 -40 18 -83 7 -43 16 -89 19 -103 3 -14 7 -36 10 -50 15 -69 29 -126 35
-135 3 -5 7 -19 9 -30 4 -25 7 -36 15 -55 37 -97 69 -187 69 -197 1 -7 5 -13
10 -13 4 0 7 -3 6 -7 -1 -5 17 -47 39 -96 23 -48 42 -90 42 -94 -1 -3 4 -9 11
-13 6 -4 12 -13 14 -21 1 -8 18 -40 39 -72 20 -31 37 -62 37 -67 0 -6 4 -10 9
-10 5 0 14 -13 21 -30 7 -16 16 -30 21 -30 5 0 9 -7 9 -15 0 -8 4 -15 9 -15 5
0 12 -8 15 -18 3 -9 19 -32 35 -50 17 -17 28 -32 25 -32 -3 0 5 -11 18 -25 34
-36 49 -55 44 -55 -2 0 12 -17 33 -38 20 -20 53 -56 74 -80 20 -23 37 -41 37
-39 0 1 31 -27 68 -63 38 -36 83 -76 101 -90 19 -14 43 -35 54 -47 11 -13 25
-23 30 -23 4 0 15 -6 22 -12 28 -25 41 -35 118 -86 42 -29 85 -56 95 -59 9 -4
25 -15 35 -26 9 -11 17 -18 17 -15 0 4 61 -25 136 -63 74 -38 140 -67 145 -64
5 4 9 2 9 -2 0 -6 69 -37 110 -48 3 -1 12 -4 20 -8 37 -15 112 -37 125 -37 8
0 15 -4 15 -10 0 -5 7 -7 15 -4 8 3 20 2 27 -2 7 -5 24 -10 38 -12 13 -2 31
-9 39 -15 12 -10 13 -9 6 2 -6 11 -5 12 6 5 8 -4 19 -9 24 -11 31 -7 69 -14
97 -19 76 -11 95 -14 143 -19 27 -3 53 -9 59 -15 6 -6 16 -5 28 1 13 7 18 6
18 -2 0 -9 3 -9 14 0 11 9 15 9 19 -1 4 -10 8 -10 16 2 8 11 11 12 11 2 0 -17
321 -15 333 2 5 8 10 7 16 -3 7 -11 13 -12 23 -4 7 6 38 13 68 16 30 3 69 8
85 11 17 3 46 7 65 10 19 3 45 8 58 11 12 3 32 7 45 10 12 2 36 8 52 12 17 4
32 7 35 8 3 1 32 9 65 19 33 10 67 20 75 21 29 7 185 67 196 76 6 5 14 6 17 3
3 -3 15 3 27 14 12 11 28 18 36 15 8 -3 14 0 14 6 0 6 3 10 8 9 12 -4 206 99
257 136 17 12 42 28 57 35 15 8 37 22 47 33 11 10 24 18 29 18 5 0 17 9 27 20
10 11 24 20 32 20 8 0 11 4 8 10 -3 6 -2 10 3 10 29 0 258 210 367 335 28 32
57 66 66 76 8 10 23 28 32 41 10 13 42 56 72 97 30 41 55 80 55 86 0 7 7 16
16 19 8 3 12 10 9 16 -3 5 -2 10 3 10 9 0 30 39 28 52 0 4 8 14 19 22 11 9 16
16 12 16 -5 0 -1 7 7 16 9 8 16 22 16 30 0 8 4 14 10 14 5 0 9 3 8 8 -2 10 43
106 54 113 5 3 10 16 11 27 1 12 5 22 9 22 4 0 7 3 6 8 -1 4 4 21 11 37 30 71
59 155 53 155 -4 0 -2 4 5 8 6 4 14 19 17 32 3 14 10 41 16 60 6 19 13 43 15
53 2 10 6 26 9 35 8 25 19 84 20 105 0 9 3 17 7 17 4 0 7 10 7 23 0 12 3 36 7
52 10 43 15 75 18 115 1 19 6 41 11 49 5 8 3 16 -5 22 -10 6 -11 9 -1 9 6 0
12 11 12 24 l0 24 -657 0 c-362 0 -665 -2 -674 -4 -10 -3 -19 -20 -23 -47 -11
-66 -48 -187 -58 -187 -5 0 -7 -4 -4 -9 3 -5 -1 -22 -9 -37 -8 -16 -15 -34
-15 -41 0 -6 -3 -13 -7 -15 -5 -1 -21 -29 -37 -62 -16 -32 -34 -63 -40 -70 -6
-6 -19 -24 -29 -39 -73 -113 -287 -305 -389 -350 -16 -6 -28 -15 -28 -18 0 -4
-13 -10 -30 -14 -16 -4 -30 -11 -30 -16 0 -5 -7 -9 -16 -9 -9 0 -30 -6 -47
-14 -57 -25 -66 -28 -147 -50 -93 -25 -120 -28 -275 -31 -168 -4 -254 8 -398
56 -110 36 -239 97 -283 134 -7 6 -38 28 -68 49 -31 22 -56 43 -56 48 0 4 -5
8 -10 8 -6 0 -34 26 -63 57 -28 31 -60 65 -69 75 -10 10 -16 18 -13 18 3 0 -9
14 -27 30 -17 17 -27 30 -22 30 5 0 4 4 -2 8 -6 4 -19 22 -28 40 -9 17 -21 32
-26 32 -6 0 -9 3 -9 8 3 14 -23 72 -32 72 -5 0 -9 7 -9 15 0 8 -4 23 -9 33
-19 35 -42 93 -46 114 -3 11 -10 37 -16 57 -7 20 -14 45 -15 56 -2 11 -5 29
-8 40 -2 11 -5 23 -5 26 -1 3 -303 6 -671 6 l-670 0 0 -38z"/>
</g>
</svg>
