<?xml version="1.0" encoding="UTF-8" standalone="no"?>
<svg
   width="512"
   height="512"
   viewBox="0 0 512 512"
   fill="none"
   version="1.1"
   id="svg1"
   xmlns="http://www.w3.org/2000/svg"
   xmlns:svg="http://www.w3.org/2000/svg">
  <defs
     id="defs1" />
  <path
     fill-rule="evenodd"
     clip-rule="evenodd"
     d="m 0.0511107,254.527 c -0.0681153,-0.116 -0.0681495,-0.26 -9.11e-5,-0.377 L 128.795,34.1843 C 128.862,34.0702 128.985,34 129.117,34 h 255.177 c 0.133,0 0.256,0.0708 0.323,0.1859 L 511.949,254.152 c 0.067,0.115 0.067,0.258 0,0.373 L 384.617,474.244 c -0.067,0.115 -0.19,0.186 -0.323,0.186 H 129.117 c -0.132,0 -0.255,-0.07 -0.322,-0.184 z M 374.617,254.215 c 0,65.488 -53.089,118.577 -118.577,118.577 -65.488,0 -118.577,-53.089 -118.577,-118.577 0,-65.489 53.089,-118.577 118.577,-118.577 65.488,0 118.577,53.088 118.577,118.577 z"
     fill="white"
     id="path1"
     style="display:none;fill:#ffffff;fill-opacity:1" />
  <path
     d="M 384,34.297498 127.99946,34.297187 -5.3868333e-4,255.99969 128,477.7025 l 256.00053,3.1e-4 128,-221.7025 z M 316,152.07695 A 120,120 0 0 1 359.92305,316 120,120 0 0 1 196,359.92305 120,120 0 0 1 152.07695,196 120,120 0 0 1 316,152.07695 Z"
     style="display:inline;fill:#ffffff"
     id="path6" />
</svg>
